<?xml version="1.0" encoding="UTF-8"?>
<!DOCTYPE svg PUBLIC "-//W3C//DTD SVG 1.1//EN" "http://www.w3.org/Graphics/SVG/1.1/DTD/svg11.dtd">
<!-- Creator: CorelDRAW 2020 (64 Bit) -->
<svg xmlns="http://www.w3.org/2000/svg" xml:space="preserve" width="16.9332mm" height="16.9332mm" version="1.1" style="shape-rendering:geometricPrecision; text-rendering:geometricPrecision; image-rendering:optimizeQuality; fill-rule:evenodd; clip-rule:evenodd"
viewBox="0 0 1693.32 1693.32"
 xmlns:xlink="http://www.w3.org/1999/xlink"
 xmlns:xodm="http://www.corel.com/coreldraw/odm/2003">
 <defs>
  <style type="text/css">
   <![CDATA[
    .fil0 {fill:url(#id0);fill-rule:nonzero}
    .fil2 {fill:url(#id1);fill-rule:nonzero}
    .fil1 {fill:url(#id2);fill-rule:nonzero}
   ]]>
  </style>
  <linearGradient id="id0" gradientUnits="userSpaceOnUse" x1="837.89" y1="1140.18" x2="877.87" y2="23.89">
   <stop offset="0" style="stop-opacity:1; stop-color:#D13D42"/>
   <stop offset="1" style="stop-opacity:1; stop-color:#7D0106"/>
  </linearGradient>
  <linearGradient id="id1" gradientUnits="userSpaceOnUse" xlink:href="#id0" x1="824.49" y1="614.15" x2="1427.34" y2="1554.51">
  </linearGradient>
  <linearGradient id="id2" gradientUnits="userSpaceOnUse" xlink:href="#id0" x1="799.64" y1="603.34" x2="335.18" y2="1619.21">
  </linearGradient>
 </defs>
 <g id="Camada_x0020_1">
  <metadata id="CorelCorpID_0Corel-Layer"/>
  <path class="fil0" d="M346.25 495.41l425 -425c31.25,-31.25 72.42,-46.87 113.57,-46.87 41.16,0 82.33,15.62 113.58,46.87l371.11 371.11c31.25,31.25 46.88,72.43 46.88,113.58 0,41.15 -15.63,82.32 -46.88,113.57l-424.99 424.99c-31.26,31.25 -72.43,46.88 -113.58,46.88 -41.15,0 -82.32,-15.63 -113.57,-46.87l-371.11 -371.12c-31.25,-31.25 -46.88,-72.43 -46.88,-113.57 0,-41.15 15.63,-82.32 46.87,-113.57zm448.49 -401.5l-424.98 424.99c-24.76,24.76 -37.14,57.42 -37.14,90.08 0,32.66 12.38,65.32 37.13,90.07l371.11 371.12c24.76,24.75 57.41,37.13 90.08,37.13 32.67,0 65.32,-12.38 90.08,-37.13l424.99 -424.99c24.75,-24.76 37.14,-57.42 37.14,-90.08 0,-32.67 -12.39,-65.33 -37.14,-90.08l-371.11 -371.11c-24.75,-24.75 -57.41,-37.14 -90.08,-37.14 -32.66,0 -65.32,12.39 -90.08,37.14z"/>
  <path class="fil1" d="M55.79 1024.64l424.99 -424.99c31.25,-31.25 72.43,-46.88 113.58,-46.88 41.15,0 82.32,15.63 113.57,46.88l371.11 371.11c31.25,31.25 46.88,72.42 46.88,113.57 0,41.15 -15.63,82.33 -46.88,113.58l-424.99 424.99c-31.26,31.25 -72.43,46.87 -113.58,46.87 -41.14,0 -82.32,-15.62 -113.56,-46.86l-371.12 -371.12c-31.25,-31.26 -46.88,-72.43 -46.88,-113.58 0,-41.14 15.63,-82.32 46.88,-113.57zm448.48 -401.5l-424.98 425c-24.76,24.75 -37.14,57.41 -37.14,90.07 0,32.67 12.38,65.32 37.13,90.07l371.12 371.12c24.75,24.76 57.41,37.14 90.07,37.14 32.67,0 65.32,-12.38 90.07,-37.13l425 -425c24.76,-24.75 37.14,-57.41 37.14,-90.08 0,-32.67 -12.38,-65.32 -37.14,-90.08l-371.11 -371.11c-24.75,-24.75 -57.41,-37.13 -90.07,-37.13 -32.67,0 -65.33,12.38 -90.09,37.13z"/>
  <path class="fil2" d="M614.29 997.7l424.99 -425c31.25,-31.25 72.43,-46.88 113.58,-46.88 41.15,0 82.32,15.63 113.57,46.88l371.11 371.11c31.25,31.25 46.88,72.42 46.88,113.58 0,41.15 -15.63,82.32 -46.88,113.57l-424.99 424.99c-31.25,31.25 -72.43,46.88 -113.57,46.88 -41.15,0 -82.32,-15.63 -113.57,-46.87l-371.12 -371.12c-31.25,-31.25 -46.87,-72.43 -46.87,-113.57 0,-41.15 15.62,-82.32 46.87,-113.57zm448.49 -401.5l-424.99 424.99c-24.76,24.76 -37.14,57.42 -37.14,90.08 0,32.66 12.38,65.32 37.13,90.07l371.12 371.11c24.76,24.76 57.41,37.14 90.08,37.14 32.66,0 65.32,-12.38 90.06,-37.13l425.01 -424.99c24.75,-24.76 37.13,-57.42 37.13,-90.08 0,-32.67 -12.38,-65.33 -37.13,-90.08l-371.11 -371.11c-24.76,-24.75 -57.41,-37.14 -90.08,-37.14 -32.67,0 -65.33,12.39 -90.08,37.14z"/>
 </g>
</svg>
